<svg width="31" height="31" viewBox="0 0 31 31" fill="none" xmlns="http://www.w3.org/2000/svg">
<path fill-rule="evenodd" clip-rule="evenodd" d="M15.0754 2.51465C8.13507 2.51465 2.51489 8.1474 2.51489 15.0877C2.51489 22.0281 8.13507 27.6608 15.0754 27.6608C22.0283 27.6608 27.6611 22.0281 27.6611 15.0877C27.6611 8.1474 22.0283 2.51465 15.0754 2.51465ZM15.0883 25.1462C9.53095 25.1462 5.02978 20.6451 5.02978 15.0878C5.02978 9.53045 9.53095 5.02928 15.0883 5.02928C20.6456 5.02928 25.1467 9.53045 25.1467 15.0878C25.1467 20.6451 20.6456 25.1462 15.0883 25.1462ZM13.8307 8.80121H15.7166V15.4021L21.3745 18.7591L20.4316 20.3056L13.8307 16.3451V8.80121Z" fill="#2F80ED"/>
</svg>
