<svg width="31" height="31" viewBox="0 0 31 31" fill="none" xmlns="http://www.w3.org/2000/svg">
<path fill-rule="evenodd" clip-rule="evenodd" d="M15.0878 5.02924C12.3092 5.02924 10.0586 7.27982 10.0586 10.0585C10.0586 12.8371 12.3092 15.0877 15.0878 15.0877C17.8665 15.0877 20.1171 12.8371 20.1171 10.0585C20.1171 7.27982 17.8665 5.02924 15.0878 5.02924ZM17.6024 10.0585C17.6024 8.67546 16.4708 7.54388 15.0878 7.54388C13.7047 7.54388 12.5732 8.67546 12.5732 10.0585C12.5732 11.4415 13.7047 12.5731 15.0878 12.5731C16.4708 12.5731 17.6024 11.4415 17.6024 10.0585ZM22.6316 22.6316C22.3801 21.7389 18.4825 20.117 15.0877 20.117C11.7056 20.117 7.83305 21.7263 7.54387 22.6316H22.6316ZM5.0293 22.6316C5.0293 19.2871 11.7308 17.6023 15.0878 17.6023C18.4448 17.6023 25.1463 19.2871 25.1463 22.6316V25.1462H5.0293V22.6316Z" fill="white"/>
</svg>
